<?xml version="1.0" encoding="utf-8"?>
<!-- Generator: Adobe Illustrator 18.0.0, SVG Export Plug-In . SVG Version: 6.00 Build 0)  -->
<!DOCTYPE svg PUBLIC "-//W3C//DTD SVG 1.1//EN" "http://www.w3.org/Graphics/SVG/1.1/DTD/svg11.dtd">
<svg version="1.1" xmlns="http://www.w3.org/2000/svg" xmlns:xlink="http://www.w3.org/1999/xlink" x="0px" y="0px"
	 viewBox="0 0 77.3 34.2" enable-background="new 0 0 77.3 34.2" xml:space="preserve">
<g id="Layer_3">
</g>
<g id="Layer_5">
</g>
<g id="Layer_2">
</g>
<g id="Layer_1">
	<g>
		<g>
			<g>
				<g>
					<path fill="#3C3C3B" d="M21.5,17.9h-2.9c-0.3-0.8-0.7-1.5-1.2-2.2c-0.5-0.6-1-1.2-1.6-1.6c-0.6-0.5-1.3-0.8-2.1-1
						c-0.7-0.2-1.6-0.3-2.4-0.3c-0.5,0-1,0.1-1.5,0.2c-0.4,0.1-0.8,0.3-1.2,0.5c-0.3,0.2-0.6,0.4-0.8,0.7c-0.2,0.3-0.2,0.5-0.2,0.8
						c0,0.4,0.1,0.8,0.4,1.1c0.2,0.3,0.6,0.6,1,0.8c0.5,0.2,1,0.4,1.6,0.5c0.6,0.2,1.2,0.3,1.9,0.4c0.2,0,0.5,0.1,0.7,0.1
						s0.5,0.1,0.7,0.2c0.1,0,0.3,0.1,0.4,0.1c0.1,0,0.3,0,0.4,0c0.1,0,0.2,0.1,0.4,0.1c0.1,0,0.3,0.1,0.4,0.1c1,0.2,1.9,0.5,2.8,0.9
						c0.9,0.4,1.8,0.9,2.6,1.4c0.8,0.5,1.5,1.3,1.9,2.2c0.4,1,0.6,2.1,0.6,3.5c0,1.2-0.2,2.3-0.7,3.3c-0.4,1-1.1,1.8-2,2.4
						c-0.8,0.7-1.9,1.2-3.1,1.5c-1.2,0.3-2.6,0.5-4.1,0.5c-0.8,0-1.5,0-2.2-0.1c-0.7-0.1-1.3-0.2-1.9-0.4c-0.5-0.1-1.1-0.3-1.6-0.6
						c-0.6-0.3-1.1-0.6-1.6-0.9c0,0-0.1-0.1-0.1-0.1c-0.1,0-0.1-0.1-0.1-0.1C6.2,32,6.1,32,6.1,32c0,0-0.1-0.1-0.1-0.1
						c-0.1-0.1-0.2-0.1-0.3-0.2c-0.1-0.1-0.2-0.1-0.2-0.2l-0.4,2H0l2.4-9H5c0.3,1,0.7,1.9,1.2,2.7c0.5,0.8,1,1.4,1.7,1.8
						c0.6,0.5,1.4,0.9,2.2,1.1c0.9,0.2,1.8,0.4,2.9,0.4c0.6,0,1.1-0.1,1.6-0.2c0.5-0.1,0.9-0.3,1.2-0.5c0.4-0.2,0.6-0.5,0.8-0.8
						c0.2-0.3,0.2-0.6,0.2-1c0-0.5-0.1-0.9-0.4-1.2c-0.2-0.3-0.6-0.6-1.1-0.8c-0.5-0.2-1.1-0.4-1.7-0.6c-0.6-0.2-1.3-0.4-2-0.5
						c-0.2-0.1-0.5-0.1-0.7-0.2c-0.2-0.1-0.4-0.1-0.7-0.1c-0.2-0.1-0.5-0.1-0.7-0.2c-0.2,0-0.4-0.1-0.7-0.1c-1-0.2-1.9-0.5-2.8-0.9
						c-0.9-0.4-1.8-0.8-2.6-1.4c-0.8-0.5-1.5-1.2-1.9-2.1c-0.4-0.9-0.6-2-0.6-3.2c0-1.3,0.2-2.4,0.7-3.3c0.4-1,1.1-1.8,1.9-2.5
						c0.9-0.7,1.9-1.2,3.1-1.6C8,9,9.4,8.9,10.9,8.9c0.8,0,1.6,0.1,2.3,0.2c0.7,0.1,1.4,0.2,2,0.4c0.6,0.2,1.2,0.5,1.8,0.8
						c0.6,0.3,1.2,0.7,1.7,1.2l0.4-1.9h4.7L21.5,17.9z"/>
				</g>
			</g>
			<g>
				<g>
					<path fill="#3C3C3B" d="M75.1,17.9h-2.9c-0.3-0.8-0.7-1.5-1.2-2.2c-0.5-0.6-1-1.2-1.6-1.6c-0.6-0.5-1.3-0.8-2.1-1
						c-0.7-0.2-1.6-0.3-2.4-0.3c-0.5,0-1,0.1-1.5,0.2c-0.4,0.1-0.8,0.3-1.2,0.5c-0.3,0.2-0.6,0.4-0.8,0.7c-0.2,0.3-0.2,0.5-0.2,0.8
						c0,0.4,0.1,0.8,0.4,1.1c0.2,0.3,0.6,0.6,1,0.8c0.5,0.2,1,0.4,1.6,0.5c0.6,0.2,1.2,0.3,1.9,0.4c0.2,0,0.5,0.1,0.7,0.1
						s0.5,0.1,0.7,0.2c0.1,0,0.3,0.1,0.4,0.1c0.1,0,0.3,0,0.4,0c0.1,0,0.2,0.1,0.4,0.1c0.1,0,0.3,0.1,0.4,0.1c1,0.2,1.9,0.5,2.8,0.9
						c0.9,0.4,1.8,0.9,2.6,1.4c0.8,0.5,1.5,1.3,1.9,2.2c0.4,1,0.6,2.1,0.6,3.5c0,1.2-0.2,2.3-0.7,3.3c-0.4,1-1.1,1.8-2,2.4
						c-0.8,0.7-1.9,1.2-3.1,1.5c-1.2,0.3-2.6,0.5-4.1,0.5c-0.8,0-1.5,0-2.2-0.1c-0.7-0.1-1.3-0.2-1.9-0.4c-0.5-0.1-1.1-0.3-1.6-0.6
						c-0.6-0.3-1.1-0.6-1.6-0.9c0,0-0.1-0.1-0.1-0.1c-0.1,0-0.1-0.1-0.1-0.1c-0.1,0-0.1-0.1-0.2-0.1c0,0-0.1-0.1-0.1-0.1
						c-0.1-0.1-0.2-0.1-0.3-0.2c-0.1-0.1-0.2-0.1-0.2-0.2l-0.4,2h-5l2.4-9h2.6c0.3,1,0.7,1.9,1.2,2.7c0.5,0.8,1,1.4,1.7,1.8
						c0.6,0.5,1.4,0.9,2.2,1.1c0.9,0.2,1.8,0.4,2.9,0.4c0.6,0,1.1-0.1,1.6-0.2c0.5-0.1,0.9-0.3,1.2-0.5c0.4-0.2,0.6-0.5,0.8-0.8
						c0.2-0.3,0.2-0.6,0.2-1c0-0.5-0.1-0.9-0.4-1.2c-0.2-0.3-0.6-0.6-1.1-0.8c-0.5-0.2-1.1-0.4-1.7-0.6c-0.6-0.2-1.3-0.4-2-0.5
						c-0.2-0.1-0.5-0.1-0.7-0.2c-0.2-0.1-0.4-0.1-0.7-0.1c-0.2-0.1-0.5-0.1-0.7-0.2c-0.2,0-0.4-0.1-0.7-0.1c-1-0.2-1.9-0.5-2.8-0.9
						c-0.9-0.4-1.8-0.8-2.6-1.4c-0.8-0.5-1.5-1.2-1.9-2.1c-0.4-0.9-0.6-2-0.6-3.2c0-1.3,0.2-2.4,0.7-3.3c0.4-1,1.1-1.8,1.9-2.5
						c0.9-0.7,1.9-1.2,3.1-1.6c1.2-0.4,2.5-0.5,4.1-0.5c0.8,0,1.6,0.1,2.3,0.2c0.7,0.1,1.4,0.2,2,0.4c0.6,0.2,1.2,0.5,1.8,0.8
						c0.6,0.3,1.2,0.7,1.7,1.2l0.4-1.9h4.7L75.1,17.9z"/>
				</g>
			</g>
			<g>
				<path fill="#3C3C3B" d="M51.6,33.4l1.1-4c-0.5,0-0.5,0-1.1,0c-0.3,0-0.6,0-0.9-0.1c-0.2-0.1-0.4-0.2-0.6-0.4
					c-0.1-0.2-0.2-0.4-0.3-0.7c-0.1-0.3-0.1-0.7-0.1-1.2V0h-11l-1.1,4.1l2.7,0.1c0.3,0,0.6,0,0.9,0.1c0.2,0.1,0.4,0.2,0.6,0.4
					C41.9,4.8,42,5,42.1,5.3c0.1,0.3,0.1,0.6,0.1,1v6c-0.2-0.2-0.4-0.4-0.6-0.6c-0.2-0.2-0.4-0.4-0.5-0.6c-0.2-0.2-0.4-0.3-0.6-0.5
					c-0.2-0.1-0.4-0.3-0.5-0.4c-0.2-0.1-0.3-0.2-0.5-0.4c-0.2-0.1-0.4-0.2-0.5-0.3c-0.2-0.1-0.4-0.1-0.6-0.2
					c-0.2-0.1-0.4-0.1-0.5-0.2C37.4,9.2,37,9.1,36.6,9c-0.4-0.1-0.9-0.1-1.4-0.1c-1.5,0-2.9,0.3-4.2,0.9c-1.3,0.6-2.4,1.5-3.3,2.8
					c-1,1.2-1.7,2.6-2.2,4.2c-0.5,1.6-0.7,3.3-0.7,5.2c0,1.8,0.2,3.5,0.7,5c0.4,1.5,1.1,2.8,2.1,4c0.9,1.1,2,2,3.2,2.5
					c1.2,0.5,2.6,0.8,4.1,0.8c0.9,0,1.7-0.1,2.4-0.2c0.7-0.2,1.4-0.4,2.1-0.6c0.6-0.2,1.2-0.6,1.8-1.1c0.6-0.5,1.1-1,1.7-1.7v2.8
					H51.6z M42.3,25.2c-0.2,1-0.6,1.8-1.1,2.6c-0.5,0.7-1,1.3-1.6,1.7c-0.6,0.4-1.3,0.6-2.1,0.6c-0.8,0-1.5-0.2-2.1-0.5
					c-0.6-0.3-1.1-0.8-1.5-1.5c-0.4-0.7-0.7-1.5-0.9-2.5c-0.2-1-0.3-2.2-0.3-3.5c0-1.3,0.1-2.4,0.3-3.4c0.2-1,0.6-1.9,1-2.6
					c0.5-0.8,1-1.3,1.6-1.7c0.6-0.4,1.3-0.6,2.1-0.6c0.8,0,1.5,0.2,2.1,0.5c0.6,0.4,1.1,0.9,1.6,1.6c0.4,0.7,0.8,1.6,1,2.6
					c0.2,1,0.3,2.2,0.3,3.5C42.7,23.2,42.5,24.2,42.3,25.2z"/>
			</g>
		</g>
	</g>
</g>
<g id="Layer_4">
</g>
</svg>
